<mxfile host="65bd71144e">
    <diagram id="HxMwkjfuytHp4q4SUsXa" name="Page-1">
        <mxGraphModel dx="1194" dy="606" grid="1" gridSize="15" guides="1" tooltips="1" connect="1" arrows="1" fold="1" page="1" pageScale="1" pageWidth="850" pageHeight="1100" background="#B0E3E6" math="0" shadow="0">
            <root>
                <mxCell id="0"/>
                <mxCell id="1" parent="0"/>
                <mxCell id="UWJuEASMIE_5mXRylOF5-1" value="&lt;div&gt;Server&lt;/div&gt;" style="rounded=1;whiteSpace=wrap;html=1;fillColor=#F08E81;strokeColor=#FFFFFF;fontColor=#1A1A1A;" parent="1" vertex="1">
                    <mxGeometry x="40" y="250" width="120" height="60" as="geometry"/>
                </mxCell>
                <mxCell id="UWJuEASMIE_5mXRylOF5-2" value="&lt;font style=&quot;font-size: 18px&quot;&gt;Phoenix-Framework&lt;/font&gt;" style="text;html=1;align=center;verticalAlign=middle;whiteSpace=wrap;rounded=0;fontColor=#1A1A1A;" parent="1" vertex="1">
                    <mxGeometry x="305" y="50" width="240" height="70" as="geometry"/>
                </mxCell>
                <mxCell id="UWJuEASMIE_5mXRylOF5-4" value="" style="endArrow=classic;html=1;rounded=0;fontSize=18;shadow=0;strokeColor=#182E3E;entryX=0;entryY=1;entryDx=0;entryDy=0;exitX=0.992;exitY=0.133;exitDx=0;exitDy=0;exitPerimeter=0;labelBackgroundColor=#B0E3E6;fontColor=#1A1A1A;" parent="1" source="UWJuEASMIE_5mXRylOF5-1" target="UWJuEASMIE_5mXRylOF5-5" edge="1">
                    <mxGeometry width="50" height="50" relative="1" as="geometry">
                        <mxPoint x="160" y="270" as="sourcePoint"/>
                        <mxPoint x="260" y="190" as="targetPoint"/>
                    </mxGeometry>
                </mxCell>
                <mxCell id="UWJuEASMIE_5mXRylOF5-5" value="&lt;div&gt;HTTP&lt;/div&gt;" style="rounded=1;whiteSpace=wrap;html=1;fontSize=18;fillColor=#F08E81;strokeColor=#FFFFFF;fontColor=#1A1A1A;" parent="1" vertex="1">
                    <mxGeometry x="250" y="180" width="120" height="60" as="geometry"/>
                </mxCell>
                <mxCell id="UWJuEASMIE_5mXRylOF5-6" value="" style="endArrow=classic;html=1;rounded=1;sketch=0;strokeColor=#182E3E;curved=0;entryX=-0.008;entryY=0.15;entryDx=0;entryDy=0;entryPerimeter=0;exitX=1;exitY=0.9;exitDx=0;exitDy=0;exitPerimeter=0;labelBackgroundColor=#B0E3E6;fontColor=#1A1A1A;" parent="1" source="UWJuEASMIE_5mXRylOF5-1" target="UWJuEASMIE_5mXRylOF5-7" edge="1">
                    <mxGeometry width="50" height="50" relative="1" as="geometry">
                        <mxPoint x="160" y="320" as="sourcePoint"/>
                        <mxPoint x="250" y="410" as="targetPoint"/>
                    </mxGeometry>
                </mxCell>
                <mxCell id="UWJuEASMIE_5mXRylOF5-7" value="&lt;font style=&quot;font-size: 18px&quot;&gt;SOCKET&lt;/font&gt;" style="rounded=1;whiteSpace=wrap;html=1;sketch=0;fontColor=#1A1A1A;strokeColor=#FFFFFF;fillColor=#F08E81;" parent="1" vertex="1">
                    <mxGeometry x="250" y="320" width="120" height="60" as="geometry"/>
                </mxCell>
                <mxCell id="UWJuEASMIE_5mXRylOF5-8" value="" style="endArrow=classic;html=1;rounded=1;sketch=0;fontSize=18;fontColor=#000000;strokeColor=#182E3E;curved=0;exitX=1;exitY=0.5;exitDx=0;exitDy=0;startArrow=none;" parent="1" source="UWJuEASMIE_5mXRylOF5-10" edge="1">
                    <mxGeometry width="50" height="50" relative="1" as="geometry">
                        <mxPoint x="405" y="225" as="sourcePoint"/>
                        <mxPoint x="508" y="270" as="targetPoint"/>
                        <Array as="points"/>
                    </mxGeometry>
                </mxCell>
                <mxCell id="UWJuEASMIE_5mXRylOF5-9" value="" style="endArrow=classic;html=1;rounded=1;sketch=0;fontSize=18;fontColor=#000000;strokeColor=#182E3E;curved=0;" parent="1" edge="1">
                    <mxGeometry width="50" height="50" relative="1" as="geometry">
                        <mxPoint x="375" y="345" as="sourcePoint"/>
                        <mxPoint x="510" y="270" as="targetPoint"/>
                    </mxGeometry>
                </mxCell>
                <mxCell id="UWJuEASMIE_5mXRylOF5-10" value="API" style="rounded=1;whiteSpace=wrap;html=1;sketch=0;fontSize=18;fontColor=#000000;strokeColor=#FFFFFF;fillColor=#F08E81;" parent="1" vertex="1">
                    <mxGeometry x="450" y="240" width="120" height="60" as="geometry"/>
                </mxCell>
                <mxCell id="UWJuEASMIE_5mXRylOF5-11" value="" style="endArrow=none;html=1;rounded=1;sketch=0;fontSize=18;fontColor=#000000;strokeColor=#182E3E;curved=0;exitX=1;exitY=0.5;exitDx=0;exitDy=0;" parent="1" source="UWJuEASMIE_5mXRylOF5-5" target="UWJuEASMIE_5mXRylOF5-10" edge="1">
                    <mxGeometry width="50" height="50" relative="1" as="geometry">
                        <mxPoint x="370" y="210" as="sourcePoint"/>
                        <mxPoint x="508" y="270" as="targetPoint"/>
                        <Array as="points"/>
                    </mxGeometry>
                </mxCell>
                <mxCell id="UWJuEASMIE_5mXRylOF5-12" value="Start API to communicate with User" style="text;html=1;strokeColor=none;fillColor=none;align=center;verticalAlign=middle;whiteSpace=wrap;rounded=0;sketch=0;fontSize=18;fontColor=#000000;" parent="1" vertex="1">
                    <mxGeometry x="480" y="335" width="60" height="30" as="geometry"/>
                </mxCell>
                <mxCell id="UWJuEASMIE_5mXRylOF5-13" value="&lt;div&gt;Start one of the Listeners&lt;/div&gt;" style="text;html=1;strokeColor=none;fillColor=none;align=center;verticalAlign=middle;whiteSpace=wrap;rounded=0;sketch=0;fontSize=18;fontColor=#000000;" parent="1" vertex="1">
                    <mxGeometry x="250" y="270" width="110" height="20" as="geometry"/>
                </mxCell>
                <mxCell id="UWJuEASMIE_5mXRylOF5-15" value="CLI" style="rounded=1;whiteSpace=wrap;html=1;sketch=0;fontSize=18;fontColor=#000000;strokeColor=#FFFFFF;fillColor=#F08E81;" parent="1" vertex="1">
                    <mxGeometry x="630" y="180" width="120" height="60" as="geometry"/>
                </mxCell>
                <mxCell id="UWJuEASMIE_5mXRylOF5-16" value="UI" style="rounded=1;whiteSpace=wrap;html=1;sketch=0;fontSize=18;fontColor=#000000;strokeColor=#FFFFFF;fillColor=#F08E81;" parent="1" vertex="1">
                    <mxGeometry x="630" y="300" width="120" height="60" as="geometry"/>
                </mxCell>
                <mxCell id="UWJuEASMIE_5mXRylOF5-17" value="" style="endArrow=classic;html=1;rounded=1;sketch=0;fontSize=18;fontColor=#000000;strokeColor=#182E3E;curved=0;entryX=0;entryY=0;entryDx=0;entryDy=0;exitX=1;exitY=1;exitDx=0;exitDy=0;" parent="1" source="UWJuEASMIE_5mXRylOF5-10" target="UWJuEASMIE_5mXRylOF5-16" edge="1">
                    <mxGeometry width="50" height="50" relative="1" as="geometry">
                        <mxPoint x="570" y="335" as="sourcePoint"/>
                        <mxPoint x="620" y="285" as="targetPoint"/>
                    </mxGeometry>
                </mxCell>
                <mxCell id="UWJuEASMIE_5mXRylOF5-18" value="" style="endArrow=classic;html=1;rounded=1;sketch=0;fontSize=18;fontColor=#000000;strokeColor=#182E3E;curved=0;entryX=0;entryY=1;entryDx=0;entryDy=0;exitX=1;exitY=0;exitDx=0;exitDy=0;" parent="1" source="UWJuEASMIE_5mXRylOF5-10" target="UWJuEASMIE_5mXRylOF5-15" edge="1">
                    <mxGeometry width="50" height="50" relative="1" as="geometry">
                        <mxPoint x="570" y="260" as="sourcePoint"/>
                        <mxPoint x="620" y="210" as="targetPoint"/>
                    </mxGeometry>
                </mxCell>
                <mxCell id="UWJuEASMIE_5mXRylOF5-19" value="" style="endArrow=classic;startArrow=classic;html=1;rounded=1;sketch=0;fontSize=18;fontColor=#000000;strokeColor=#182E3E;curved=0;exitX=0.867;exitY=1.017;exitDx=0;exitDy=0;exitPerimeter=0;entryX=1.004;entryY=0.937;entryDx=0;entryDy=0;entryPerimeter=0;" parent="1" source="UWJuEASMIE_5mXRylOF5-7" target="UWJuEASMIE_5mXRylOF5-21" edge="1">
                    <mxGeometry width="50" height="50" relative="1" as="geometry">
                        <mxPoint x="495" y="470" as="sourcePoint"/>
                        <mxPoint x="585" y="435" as="targetPoint"/>
                        <Array as="points"/>
                    </mxGeometry>
                </mxCell>
                <mxCell id="UWJuEASMIE_5mXRylOF5-21" value="" style="rounded=1;whiteSpace=wrap;html=1;sketch=0;fontSize=18;fontColor=#000000;strokeColor=#000000;fillColor=none;rotation=90;" parent="1" vertex="1">
                    <mxGeometry x="562.5" y="205" width="255" height="135" as="geometry"/>
                </mxCell>
                <mxCell id="UWJuEASMIE_5mXRylOF5-22" value="" style="endArrow=classic;startArrow=classic;html=1;rounded=1;sketch=0;fontSize=18;fontColor=#000000;strokeColor=#182E3E;curved=0;entryX=0;entryY=1;entryDx=0;entryDy=0;exitX=1;exitY=0;exitDx=0;exitDy=0;" parent="1" source="UWJuEASMIE_5mXRylOF5-5" target="UWJuEASMIE_5mXRylOF5-21" edge="1">
                    <mxGeometry width="50" height="50" relative="1" as="geometry">
                        <mxPoint x="495" y="200" as="sourcePoint"/>
                        <mxPoint x="545" y="150" as="targetPoint"/>
                    </mxGeometry>
                </mxCell>
                <mxCell id="UWJuEASMIE_5mXRylOF5-23" value="Communication between Server and User" style="text;html=1;strokeColor=none;fillColor=none;align=center;verticalAlign=middle;whiteSpace=wrap;rounded=0;sketch=0;fontSize=18;fontColor=#000000;" parent="1" vertex="1">
                    <mxGeometry x="525" y="535" width="60" height="30" as="geometry"/>
                </mxCell>
                <mxCell id="UWJuEASMIE_5mXRylOF5-26" value="" style="endArrow=classic;html=1;rounded=1;sketch=0;fontSize=18;fontColor=#000000;strokeColor=#A50040;curved=0;fillColor=#d80073;" parent="1" edge="1">
                    <mxGeometry width="50" height="50" relative="1" as="geometry">
                        <mxPoint x="562.5" y="512.5" as="sourcePoint"/>
                        <mxPoint x="510" y="165" as="targetPoint"/>
                    </mxGeometry>
                </mxCell>
                <mxCell id="UWJuEASMIE_5mXRylOF5-28" value="" style="endArrow=classic;html=1;rounded=1;sketch=0;fontSize=18;fontColor=#000000;strokeColor=#A50040;curved=0;fillColor=#d80073;" parent="1" edge="1">
                    <mxGeometry width="50" height="50" relative="1" as="geometry">
                        <mxPoint x="600" y="510" as="sourcePoint"/>
                        <mxPoint x="570" y="390" as="targetPoint"/>
                    </mxGeometry>
                </mxCell>
            </root>
        </mxGraphModel>
    </diagram>
</mxfile>